# xmcd
#
# Track frame offsets: 
#        150
#        18246
#        38961
#        55068
#        75056
#        94818
#        112864
#        130167
#        149113
#        165278
#        186588
#        206146
#        224008
#        241252
#        259543
#        281063
#        301419
#        317926
#        334676
#
# Disc length: 4663 seconds
#
# Revision: 1
# Processed by: cddbd v1.5.2PL0 Copyright (c) Steve Scherf et al.
# Submitted via: ExactAudioCopy v1.0b1
#
DISCID=12123513
DTITLE=Michael Learns To Rock - 19 Love Ballads
DYEAR=2001
DGENRE=Pop
TTITLE0=The Ghost Of You
TTITLE1=The Actor
TTITLE2=Sleeping Child
TTITLE3=Complicated Heart
TTITLE4=25 Minutes
TTITLE5=Out Of The Blue
TTITLE6=I Wanna Dance
TTITLE7=That's Why (You Go Away)
TTITLE8=Love Will Never Lie
TTITLE9=How Many Hours
TTITLE10=I'm Gonna Be Around
TTITLE11=Nothing To Lose
TTITLE12=Paint My Love
TTITLE13=Breaking My Heart
TTITLE14=Strange Foreign Beauty
TTITLE15=You Took My Heart Away
TTITLE16=Blue Night
TTITLE17=More Than A Friend
TTITLE18=Forever And A Day
EXTD=
EXTT0=
EXTT1=
EXTT2=
EXTT3=
EXTT4=
EXTT5=
EXTT6=
EXTT7=
EXTT8=
EXTT9=
EXTT10=
EXTT11=
EXTT12=
EXTT13=
EXTT14=
EXTT15=
EXTT16=
EXTT17=
EXTT18=
PLAYORDER=
